# xmcd
#
# Track frame offsets: 
#        182
#        18310
#        35937
#        53477
#        71545
#        87597
#        108342
#        126095
#        148405
#        173400
#
# Disc length: 2766 seconds
#
# Revision: 0
# Processed by: cddbd v1.5.2PL0 Copyright (c) Steve Scherf et al.
# Submitted via: ExactAudioCopy v0.99pb3
#
DISCID=890acc0a
DTITLE=Jacno - La Part Des Anges
DYEAR=1998
DGENRE=Synthpop
TTITLE0=La Part Des Anges
TTITLE1=Je Viens D'ailleurs
TTITLE2=Sans Un Bruit
TTITLE3=Je Vous Salue Marie
TTITLE4=On S'absentera
TTITLE5=Pour Seule Mémoire
TTITLE6=Ave Maria
TTITLE7=Mort Pour La Vie
TTITLE8=Je Ne Suis Pas Toujours De Mon Avis
TTITLE9=O.A.O
EXTD=
EXTT0=
EXTT1=
EXTT2=
EXTT3=
EXTT4=
EXTT5=
EXTT6=
EXTT7=
EXTT8=
EXTT9=
PLAYORDER=
